<svg xmlns="http://www.w3.org/2000/svg" width="17.283" height="22.895" viewBox="0 0 17.283 22.895">
  <g id="XMLID_2_" transform="translate(-34.055 -2.3)">
    <path id="XMLID_7_" d="M67.97,125.668a1.958,1.958,0,0,1-.7.127,2.673,2.673,0,0,1-.765-.1l-2.7,6.218a1.047,1.047,0,0,1-1.52.437,1.331,1.331,0,0,1-.619-1.639l3.314-7.611h4.233v-.71l2.139-.992a1.111,1.111,0,0,1,1.438.783l1.047,4.206a1.113,1.113,0,0,1-.81,1.347,1.127,1.127,0,0,1-1.356-.81L71,124.239Z" transform="translate(-25.008 -108.183)" fill="#fff"/>
    <path id="XMLID_6_" d="M153.3,13.124c4.634-2.3,6.427-10.169,6.427-10.824h-.637c-.237,1.639-2.23,8.211-5.79,10.114Z" transform="translate(-108.39 0)" fill="#fff"/>
    <path id="XMLID_5_" d="M36.362,15.926a.946.946,0,0,0,1.165.364l2.449-.956v3.4h4.233V14.8l3.8-6.063a.948.948,0,0,0-.3-1.311.909.909,0,0,0-1.274.282l-3.223,5.153-1.939.009a.909.909,0,0,0-.373.073l-3.359,1.3-1.73-2.622a.954.954,0,0,0-1.6,1.038Z" transform="translate(0 -4.522)" fill="#fff"/>
    <path id="XMLID_4_" d="M102.284,31.168a1.684,1.684,0,1,0-1.684-1.684A1.686,1.686,0,0,0,102.284,31.168Z" transform="translate(-60.487 -23.179)" fill="#fff"/>
    <path id="XMLID_3_" d="M138.41,178.083V170.5l-.71.328v7.256Z" transform="translate(-94.21 -152.888)" fill="#fff"/>
  </g>
</svg>
