<svg xmlns="http://www.w3.org/2000/svg" width="47.343" height="47.053" viewBox="0 0 47.343 47.053">
  <path id="facebook-svgrepo-com" d="M48.347,24.765A23.672,23.672,0,1,0,20.84,48.131l.136.019V31.61H14.964V24.765h6.011V19.553a7.987,7.987,0,0,1-.046-.879,8.356,8.356,0,0,1,8.355-8.355c.223,0,.444.009.663.025l-.028,0a36.509,36.509,0,0,1,5.511.493l-.212-.03V16.63H32.232a3.327,3.327,0,0,0-.45-.03,3.422,3.422,0,0,0-3.422,3.422c0,.107,0,.213.014.319l0-.014v4.439h6.565l-1.05,6.844H28.373V48.15A23.715,23.715,0,0,0,48.347,24.765h0Z" transform="translate(-1.004 -1.097)" fill="#ededed"/>
</svg>
