<svg xmlns="http://www.w3.org/2000/svg" width="273.076" height="26.684" viewBox="0 0 273.076 26.684">
  <g id="Group_5254" data-name="Group 5254" transform="matrix(1, 0.017, -0.017, 1, -471.361, -381.875)">
    <path id="Path_5156" data-name="Path 5156" d="M641.186,373.587c-37.212,0-60.711.746-91.4,2.865-21.742,1.549-61.214,5.279-67.57,6.482-3.763.688-5.015,1.89-3.26,3.1,1,.687,8.78.228,40.057-2.465,65.143-5.507,96.669-6.767,153.116-6.136,35.706.4,48.834.8,71.831,2.293,4.769.344,7.11.228,7.11-.287C751.071,376.167,702.234,373.587,641.186,373.587Z" transform="translate(0 0)" fill="#f09708"/>
    <path id="Path_5157" data-name="Path 5157" d="M708.876,378.061c-27.6-.8-96.838.631-137.9,2.865-36.627,2.009-78.69,6.136-87.722,8.66q-6.022,1.631-3.512,3.44a8.925,8.925,0,0,0,3.93.116c10.956-1.378,48.168-4.874,65.395-6.136,42.229-2.981,71.833-4.13,148.6-5.62,16.558-.287,30.44-.8,30.858-1.088C730.282,379.093,725.6,378.521,708.876,378.061Z" transform="translate(1.302 2.594)" fill="#f09708"/>
  </g>
</svg>
