<svg xmlns="http://www.w3.org/2000/svg" width="49.008" height="49.008" viewBox="0 0 49.008 49.008">
  <g id="instagram-round-svgrepo-com" transform="translate(143 -145)">
    <path id="Path_5159" data-name="Path 5159" d="M72.4,364.434a4.313,4.313,0,1,0-4.3-4.317A4.324,4.324,0,0,0,72.4,364.434Z" transform="translate(-190.894 -190.623)" fill="#fff"/>
    <path id="Path_5160" data-name="Path 5160" d="M172.154,306.654V302.5h-.536l-3.618.01.019,4.154Z" transform="translate(-281.232 -142.424)" fill="#fff"/>
    <path id="Path_5161" data-name="Path 5161" d="M26.559,377.217a6.7,6.7,0,1,1-12.9-2.517H10v10.031a2.349,2.349,0,0,0,2.345,2.345H27.373a2.349,2.349,0,0,0,2.345-2.345V374.7H26.061A6.49,6.49,0,0,1,26.559,377.217Z" transform="translate(-138.355 -207.714)" fill="#fff"/>
    <path id="Path_5162" data-name="Path 5162" d="M-118.5,145A24.5,24.5,0,0,0-143,169.5a24.5,24.5,0,0,0,24.5,24.5,24.5,24.5,0,0,0,24.5-24.5A24.5,24.5,0,0,0-118.5,145Zm12.252,21.986v10.031a4.743,4.743,0,0,1-4.738,4.738H-126.01a4.743,4.743,0,0,1-4.738-4.738V161.98a4.743,4.743,0,0,1,4.738-4.738h15.028a4.743,4.743,0,0,1,4.738,4.738Z" transform="translate(0)" fill="#fff"/>
  </g>
</svg>
