<svg xmlns="http://www.w3.org/2000/svg" width="62.988" height="48.926" viewBox="0 0 62.988 48.926">
  <path id="Sample" d="M28.931-101.587V-98a24.8,24.8,0,0,0-11.938,8.752,20.891,20.891,0,0,0-4.321,12.415,3.764,3.764,0,0,0,.439,2.051.814.814,0,0,0,.659.439,2.294,2.294,0,0,0,1.1-.513A9.912,9.912,0,0,1,20.8-76.538a9.923,9.923,0,0,1,7.4,3.406,11.374,11.374,0,0,1,3.223,8.093,11.922,11.922,0,0,1-3.7,8.643,12.157,12.157,0,0,1-8.972,3.735A13.733,13.733,0,0,1,8.13-57.715q-4.468-5.054-4.468-13.55A28.166,28.166,0,0,1,9.741-88.989Q15.82-96.826,28.931-101.587Zm-35.229,0V-98a24.8,24.8,0,0,0-11.938,8.752,20.891,20.891,0,0,0-4.321,12.415,3.764,3.764,0,0,0,.439,2.051.814.814,0,0,0,.659.439,2.294,2.294,0,0,0,1.1-.513,9.912,9.912,0,0,1,5.933-1.685,9.923,9.923,0,0,1,7.4,3.406,11.374,11.374,0,0,1,3.223,8.093,11.922,11.922,0,0,1-3.7,8.643,12.157,12.157,0,0,1-8.972,3.735A13.733,13.733,0,0,1-27.1-57.715q-4.468-5.054-4.468-13.55a28.166,28.166,0,0,1,6.079-17.725Q-19.409-96.826-6.3-101.587Z" transform="translate(31.567 101.587)" fill="#f09708"/>
</svg>
